HIERARCHY
ROOT hip
{
	OFFSET 0.000000 0.000000 0.000000 
	CHANNELS 6 Xposition Yposition Zposition Xrotation Zrotation Yrotation
	JOINT abdomen
	{
		OFFSET 0.000000 3.402643 0.000000 
		CHANNELS 3 Xrotation Zrotation Yrotation
		JOINT chest
		{
			OFFSET 0.000000 8.438565 -0.680529 
			CHANNELS 3 Xrotation Zrotation Yrotation
			JOINT neck
			{
				OFFSET 0.000000 10.207942 -0.272212 
				CHANNELS 3 Xrotation Zrotation Yrotation
				JOINT head
				{
					OFFSET 0.000000 3.130431 0.000000 
					CHANNELS 3 Xrotation Zrotation Yrotation
					End Site
					{
						OFFSET 0.000000 3.130435 0.000000 
					}
				}
			}
			JOINT lCollar
			{
				OFFSET 3.470700 6.669187 -0.816635 
				CHANNELS 3 Yrotation Zrotation Xrotation
				JOINT lShldr
				{
					OFFSET 3.198488 0.000000 0.000000 
					CHANNELS 3 Zrotation Yrotation Xrotation
					JOINT lForeArm
					{
						OFFSET 10.139888 0.000000 0.000000 
						CHANNELS 3 Yrotation Zrotation Xrotation
						JOINT lHand
						{
							OFFSET 8.370511 0.000000 0.000000 
							CHANNELS 3 Zrotation Yrotation Xrotation
							End Site
							{
								OFFSET 4.083176 0.000000 0.000000 
							}
						}
					}
				}
			}
			JOINT rCollar
			{
				OFFSET -3.470700 6.669187 -0.816635 
				CHANNELS 3 Yrotation Zrotation Xrotation
				JOINT rShldr
				{
					OFFSET -3.198488 0.000000 0.000000 
					CHANNELS 3 Zrotation Yrotation Xrotation
					JOINT rForeArm
					{
						OFFSET -10.139888 0.000000 0.000000 
						CHANNELS 3 Yrotation Zrotation Xrotation
						JOINT rHand
						{
							OFFSET -8.370511 0.000000 0.000000 
							CHANNELS 3 Zrotation Yrotation Xrotation
							End Site
							{
								OFFSET -4.083176 0.000000 0.000000 
							}
						}
					}
				}
			}
		}
	}
	JOINT lThigh
	{
		OFFSET 5.308129 -1.633274 1.361059 
		CHANNELS 3 Xrotation Zrotation Yrotation
		JOINT lShin
		{
			OFFSET -2.041588 -20.007561 0.000000 
			CHANNELS 3 Xrotation Zrotation Yrotation
			JOINT lFoot
			{
				OFFSET 0.000000 -19.190928 -1.224953 
				CHANNELS 3 Xrotation Yrotation Zrotation
				End Site
				{
					OFFSET 0.000000 -2.449906 4.627600 
				}
			}
		}
	}
	JOINT rThigh
	{
		OFFSET -5.308129 -1.633274 1.361059 
		CHANNELS 3 Xrotation Zrotation Yrotation
		JOINT rShin
		{
			OFFSET 2.041588 -20.007561 0.000000 
			CHANNELS 3 Xrotation Zrotation Yrotation
			JOINT rFoot
			{
				OFFSET 0.000000 -19.190928 -1.224953 
				CHANNELS 3 Xrotation Yrotation Zrotation
				End Site
				{
					OFFSET 0.000000 -2.449906 4.627600 
				}
			}
		}
	}
}
MOTION
Frames: 6
Frame Time: 0.016667
2.308910 43.789352 -0.130555 -8.521080 5.157590 -5.527030 -17.135500 4.828900 -3.892770 11.549300 9.348270 -2.363070 30.608900 -1.724990 -14.016700 15.701400 2.567710 -6.936390 2.000000 -2.000000 0.000000 -88.520203 17.700701 169.919006 54.131302 -0.294956 0.110844 0.063524 -0.053331 -156.335999 -2.000000 2.000000 0.000000 79.766098 -0.198956 115.585999 -48.926201 0.304676 0.103070 -0.173800 0.155100 147.903000 -1.547280 -12.601451 0.002064 36.020630 2.640428 2.605526 -21.202600 -0.388532 -0.664122 -28.681490 -3.591510 9.669147 34.354065 -3.402237 -2.290469 -18.523962 -23.180283 -5.797314 
2.708205 43.888893 -1.689715 -9.068960 5.719110 -6.232910 -17.074400 4.173930 -4.083890 11.554900 9.512490 -2.543340 29.641899 -1.188090 -13.570200 15.247000 2.994300 -6.804560 2.000000 -2.000000 0.000000 -87.974701 19.195601 170.227997 51.387199 -0.300168 0.106883 0.051873 -0.047647 -154.197006 -2.000000 2.000000 0.000000 81.856903 -1.810740 116.023003 -54.561001 0.294122 0.111392 -0.187260 0.167815 142.981003 -3.424165 -13.373800 0.752133 36.592716 2.492409 2.686023 -19.489639 -1.246925 -0.958295 -29.092020 -5.013236 4.905727 39.445229 -2.977394 -2.671139 -18.551855 -23.717813 -5.893124 
3.110230 44.048996 -3.189677 -9.351810 5.608540 -7.230080 -17.097601 3.690080 -4.264060 11.458000 9.432780 -2.684020 30.003099 -1.380370 -13.247300 15.519700 2.904740 -6.632020 2.000000 -2.000000 0.000000 -87.945503 20.041800 168.770996 48.398899 -0.305621 0.102290 0.051512 -0.046470 -153.757996 -2.000000 2.000000 0.000000 82.869698 -2.278120 114.684998 -59.033699 0.285195 0.117235 -0.192256 0.168606 141.173996 -5.000094 -13.599681 1.218242 36.519253 2.429042 2.696610 -18.234154 -1.148486 -0.882527 -28.910551 -5.598560 1.940984 45.878208 -2.451173 -3.095017 -16.415998 -21.241804 -4.565502 
3.463949 44.249870 -4.587164 -9.966810 4.790230 -8.555100 -17.363800 3.596690 -4.045020 10.882400 9.118760 -2.601240 30.008900 -1.564350 -13.002500 15.374300 3.011860 -6.540190 2.000000 -2.000000 0.000000 -88.443604 21.423000 166.425003 46.162601 -0.309541 0.098671 0.051591 -0.046732 -153.854996 -2.000000 2.000000 0.000000 82.040604 -2.381880 110.710999 -61.201698 0.280710 0.119813 -0.201058 0.159845 138.009995 -5.704875 -13.296665 1.277281 36.087303 2.442518 2.689596 -17.292942 0.396855 -0.319373 -27.661314 -5.241527 0.112848 52.854511 -1.904440 -3.515934 -13.835065 -18.074692 -3.104626 
3.786910 44.442776 -5.953051 -10.188000 4.498550 -9.176510 -17.357300 3.326990 -4.041970 11.026800 8.900920 -2.590150 31.178200 -2.099660 -13.129300 16.053400 2.573220 -6.537760 2.000000 -2.000000 0.000000 -88.725403 21.632200 163.953003 44.023899 -0.313155 0.095069 0.051824 -0.047490 -154.139008 -2.000000 2.000000 0.000000 79.409897 -0.541637 104.785004 -60.283699 0.282621 0.118742 -0.197167 0.169227 139.406006 -6.550174 -13.133966 1.463355 35.321861 2.436951 2.633991 -16.604435 0.907315 -0.136835 -26.122566 -5.688780 -1.545958 59.701672 -1.366025 -3.870341 -12.779705 -16.473661 -2.678037 
3.988850 44.626156 -7.350651 -10.008000 2.279270 -9.923280 -18.104200 3.908790 -4.221490 10.230800 9.071950 -2.670360 31.092199 -2.359740 -12.439500 15.774400 2.939800 -6.298710 2.000000 -2.000000 0.000000 -89.672501 23.520599 161.283005 42.724998 -0.315284 0.092817 0.052201 -0.048690 -154.587997 -2.000000 2.000000 0.000000 74.801201 -1.027840 100.859001 -58.613800 0.286052 0.116717 -0.188230 0.167981 142.628998 -8.243041 -10.235170 2.451088 35.907608 2.477576 2.664613 -17.095600 -0.240573 -0.411983 -23.461983 -3.366242 -2.769175 64.857307 -0.905261 -4.118282 -11.372547 -15.539701 -2.315174 
